<svg xmlns="http://www.w3.org/2000/svg" xmlns:xlink="http://www.w3.org/1999/xlink" width="128" height="128" version="1.1" style="shape-rendering:geometricPrecision;text-rendering:geometricPrecision;image-rendering:optimizeQuality;fill-rule:evenodd;clip-rule:evenodd"><g><path style="opacity:1" fill="#e5e5e6" d="M 75.5,3.5 C 79.5,3.5 83.5,3.5 87.5,3.5C 87.5,4.83333 87.5,6.16667 87.5,7.5C 86.1667,7.5 84.8333,7.5 83.5,7.5C 83.5,8.83333 83.5,10.1667 83.5,11.5C 84.8333,11.5 86.1667,11.5 87.5,11.5C 87.5,12.8333 87.5,14.1667 87.5,15.5C 90.1667,15.5 92.8333,15.5 95.5,15.5C 95.5,16.8333 95.5,18.1667 95.5,19.5C 98.1667,19.5 100.833,19.5 103.5,19.5C 103.5,20.8333 103.5,22.1667 103.5,23.5C 100.833,23.5 98.1667,23.5 95.5,23.5C 95.5,24.8333 95.5,26.1667 95.5,27.5C 94.1667,27.5 92.8333,27.5 91.5,27.5C 91.5,26.1667 91.5,24.8333 91.5,23.5C 88.8333,23.5 86.1667,23.5 83.5,23.5C 83.5,22.1667 83.5,20.8333 83.5,19.5C 79.5,19.5 75.5,19.5 71.5,19.5C 71.5,22.1667 71.5,24.8333 71.5,27.5C 72.8333,27.5 74.1667,27.5 75.5,27.5C 75.5,28.8333 75.5,30.1667 75.5,31.5C 74.1667,31.5 72.8333,31.5 71.5,31.5C 70.1667,31.5 68.8333,31.5 67.5,31.5C 67.5,30.1667 67.5,28.8333 67.5,27.5C 66.1667,27.5 64.8333,27.5 63.5,27.5C 63.5,26.1667 63.5,24.8333 63.5,23.5C 62.1667,23.5 60.8333,23.5 59.5,23.5C 59.5,22.1667 59.5,20.8333 59.5,19.5C 56.8333,19.5 54.1667,19.5 51.5,19.5C 51.5,20.8333 51.5,22.1667 51.5,23.5C 52.8333,23.5 54.1667,23.5 55.5,23.5C 55.5,24.8333 55.5,26.1667 55.5,27.5C 52.8333,27.5 50.1667,27.5 47.5,27.5C 47.5,23.5 47.5,19.5 47.5,15.5C 47.5,14.1667 47.5,12.8333 47.5,11.5C 48.8333,11.5 50.1667,11.5 51.5,11.5C 51.5,10.1667 51.5,8.83333 51.5,7.5C 54.1667,7.5 56.8333,7.5 59.5,7.5C 59.5,8.83333 59.5,10.1667 59.5,11.5C 63.5,11.5 67.5,11.5 71.5,11.5C 71.5,10.1667 71.5,8.83333 71.5,7.5C 72.8333,7.5 74.1667,7.5 75.5,7.5C 75.5,6.16667 75.5,4.83333 75.5,3.5 Z"/></g><g><path style="opacity:1" fill="#bfbfc2" d="M 75.5,3.5 C 75.5,4.83333 75.5,6.16667 75.5,7.5C 74.1667,7.5 72.8333,7.5 71.5,7.5C 71.5,8.83333 71.5,10.1667 71.5,11.5C 67.5,11.5 63.5,11.5 59.5,11.5C 59.5,10.1667 59.5,8.83333 59.5,7.5C 62.1667,7.5 64.8333,7.5 67.5,7.5C 67.5,6.16667 67.5,4.83333 67.5,3.5C 70.1667,3.5 72.8333,3.5 75.5,3.5 Z"/></g><g><path style="opacity:1" fill="#5e6971" d="M 47.5,11.5 C 47.5,12.8333 47.5,14.1667 47.5,15.5C 46.1667,15.5 44.8333,15.5 43.5,15.5C 43.5,14.1667 43.5,12.8333 43.5,11.5C 44.8333,11.5 46.1667,11.5 47.5,11.5 Z"/></g><g><path style="opacity:1" fill="#465057" d="M 43.5,15.5 C 43.5,16.8333 43.5,18.1667 43.5,19.5C 42.1667,19.5 40.8333,19.5 39.5,19.5C 39.5,18.1667 39.5,16.8333 39.5,15.5C 40.8333,15.5 42.1667,15.5 43.5,15.5 Z"/></g><g><path style="opacity:1" fill="#b5b5b8" d="M 43.5,15.5 C 44.8333,15.5 46.1667,15.5 47.5,15.5C 47.5,19.5 47.5,23.5 47.5,27.5C 50.1667,27.5 52.8333,27.5 55.5,27.5C 55.5,26.1667 55.5,24.8333 55.5,23.5C 54.1667,23.5 52.8333,23.5 51.5,23.5C 51.5,22.1667 51.5,20.8333 51.5,19.5C 54.1667,19.5 56.8333,19.5 59.5,19.5C 59.5,20.8333 59.5,22.1667 59.5,23.5C 60.8333,23.5 62.1667,23.5 63.5,23.5C 63.5,24.8333 63.5,26.1667 63.5,27.5C 64.8333,27.5 66.1667,27.5 67.5,27.5C 67.5,28.8333 67.5,30.1667 67.5,31.5C 66.1667,31.5 64.8333,31.5 63.5,31.5C 60.8333,31.5 58.1667,31.5 55.5,31.5C 51.5,31.5 47.5,31.5 43.5,31.5C 43.5,32.8333 43.5,34.1667 43.5,35.5C 42.1667,35.5 40.8333,35.5 39.5,35.5C 39.5,30.1667 39.5,24.8333 39.5,19.5C 40.8333,19.5 42.1667,19.5 43.5,19.5C 43.5,18.1667 43.5,16.8333 43.5,15.5 Z"/></g><g><path style="opacity:1" fill="#b6b6b9" d="M 91.5,27.5 C 90.1667,27.5 88.8333,27.5 87.5,27.5C 86.1667,27.5 84.8333,27.5 83.5,27.5C 83.5,28.8333 83.5,30.1667 83.5,31.5C 80.8333,31.5 78.1667,31.5 75.5,31.5C 75.5,30.1667 75.5,28.8333 75.5,27.5C 74.1667,27.5 72.8333,27.5 71.5,27.5C 71.5,24.8333 71.5,22.1667 71.5,19.5C 75.5,19.5 79.5,19.5 83.5,19.5C 83.5,20.8333 83.5,22.1667 83.5,23.5C 86.1667,23.5 88.8333,23.5 91.5,23.5C 91.5,24.8333 91.5,26.1667 91.5,27.5 Z"/></g><g><path style="opacity:1" fill="#9a9790" d="M 55.5,31.5 C 58.1667,31.5 60.8333,31.5 63.5,31.5C 63.5,38.1667 63.5,44.8333 63.5,51.5C 64.8333,51.5 66.1667,51.5 67.5,51.5C 67.5,52.8333 67.5,54.1667 67.5,55.5C 68.8333,55.5 70.1667,55.5 71.5,55.5C 71.5,56.8333 71.5,58.1667 71.5,59.5C 66.1667,59.5 60.8333,59.5 55.5,59.5C 55.5,58.1667 55.5,56.8333 55.5,55.5C 55.5,52.8333 55.5,50.1667 55.5,47.5C 56.8333,47.5 58.1667,47.5 59.5,47.5C 59.5,43.5 59.5,39.5 59.5,35.5C 58.1667,35.5 56.8333,35.5 55.5,35.5C 55.5,34.1667 55.5,32.8333 55.5,31.5 Z"/></g><g><path style="opacity:1" fill="#cec9c3" d="M 63.5,31.5 C 64.8333,31.5 66.1667,31.5 67.5,31.5C 68.8333,31.5 70.1667,31.5 71.5,31.5C 71.5,32.8333 71.5,34.1667 71.5,35.5C 70.1667,35.5 68.8333,35.5 67.5,35.5C 67.5,39.5 67.5,43.5 67.5,47.5C 68.8333,47.5 70.1667,47.5 71.5,47.5C 71.5,50.1667 71.5,52.8333 71.5,55.5C 70.1667,55.5 68.8333,55.5 67.5,55.5C 67.5,54.1667 67.5,52.8333 67.5,51.5C 66.1667,51.5 64.8333,51.5 63.5,51.5C 63.5,44.8333 63.5,38.1667 63.5,31.5 Z"/></g><g><path style="opacity:1" fill="#1f1d1c" d="M 71.5,31.5 C 72.8333,31.5 74.1667,31.5 75.5,31.5C 78.1667,31.5 80.8333,31.5 83.5,31.5C 83.5,35.5 83.5,39.5 83.5,43.5C 82.1667,43.5 80.8333,43.5 79.5,43.5C 79.5,42.1667 79.5,40.8333 79.5,39.5C 79.5,38.1667 79.5,36.8333 79.5,35.5C 78.1667,35.5 76.8333,35.5 75.5,35.5C 74.1667,35.5 72.8333,35.5 71.5,35.5C 71.5,34.1667 71.5,32.8333 71.5,31.5 Z"/></g><g><path style="opacity:1" fill="#919089" d="M 39.5,35.5 C 40.8333,35.5 42.1667,35.5 43.5,35.5C 43.5,38.1667 43.5,40.8333 43.5,43.5C 44.8333,43.5 46.1667,43.5 47.5,43.5C 47.5,44.8333 47.5,46.1667 47.5,47.5C 48.8333,47.5 50.1667,47.5 51.5,47.5C 51.5,50.1667 51.5,52.8333 51.5,55.5C 50.1667,55.5 48.8333,55.5 47.5,55.5C 47.5,54.1667 47.5,52.8333 47.5,51.5C 46.1667,51.5 44.8333,51.5 43.5,51.5C 43.5,50.1667 43.5,48.8333 43.5,47.5C 42.1667,47.5 40.8333,47.5 39.5,47.5C 39.5,43.5 39.5,39.5 39.5,35.5 Z"/></g><g><path style="opacity:1" fill="#000103" d="M 55.5,31.5 C 55.5,32.8333 55.5,34.1667 55.5,35.5C 56.8333,35.5 58.1667,35.5 59.5,35.5C 59.5,39.5 59.5,43.5 59.5,47.5C 58.1667,47.5 56.8333,47.5 55.5,47.5C 55.5,50.1667 55.5,52.8333 55.5,55.5C 54.1667,55.5 52.8333,55.5 51.5,55.5C 51.5,52.8333 51.5,50.1667 51.5,47.5C 50.1667,47.5 48.8333,47.5 47.5,47.5C 47.5,46.1667 47.5,44.8333 47.5,43.5C 46.1667,43.5 44.8333,43.5 43.5,43.5C 43.5,40.8333 43.5,38.1667 43.5,35.5C 43.5,34.1667 43.5,32.8333 43.5,31.5C 47.5,31.5 51.5,31.5 55.5,31.5 Z"/></g><g><path style="opacity:1" fill="#fefffe" d="M 51.5,35.5 C 52.8333,35.5 54.1667,35.5 55.5,35.5C 55.5,36.8333 55.5,38.1667 55.5,39.5C 54.1667,39.5 52.8333,39.5 51.5,39.5C 51.5,38.1667 51.5,36.8333 51.5,35.5 Z"/></g><g><path style="opacity:1" fill="#449cb7" d="M 51.5,35.5 C 51.5,36.8333 51.5,38.1667 51.5,39.5C 50.1667,39.5 48.8333,39.5 47.5,39.5C 47.5,38.1667 47.5,36.8333 47.5,35.5C 48.8333,35.5 50.1667,35.5 51.5,35.5 Z"/></g><g><path style="opacity:1" fill="#0e6384" d="M 51.5,39.5 C 52.8333,39.5 54.1667,39.5 55.5,39.5C 55.5,40.8333 55.5,42.1667 55.5,43.5C 54.1667,43.5 52.8333,43.5 51.5,43.5C 51.5,42.1667 51.5,40.8333 51.5,39.5 Z"/></g><g><path style="opacity:1" fill="#e3dfdb" d="M 87.5,27.5 C 87.5,34.1667 87.5,40.8333 87.5,47.5C 86.1667,47.5 84.8333,47.5 83.5,47.5C 83.5,48.8333 83.5,50.1667 83.5,51.5C 82.1667,51.5 80.8333,51.5 79.5,51.5C 79.5,52.8333 79.5,54.1667 79.5,55.5C 78.1667,55.5 76.8333,55.5 75.5,55.5C 75.5,52.8333 75.5,50.1667 75.5,47.5C 76.8333,47.5 78.1667,47.5 79.5,47.5C 79.5,46.1667 79.5,44.8333 79.5,43.5C 80.8333,43.5 82.1667,43.5 83.5,43.5C 83.5,39.5 83.5,35.5 83.5,31.5C 83.5,30.1667 83.5,28.8333 83.5,27.5C 84.8333,27.5 86.1667,27.5 87.5,27.5 Z"/></g><g><path style="opacity:1" fill="#202428" d="M 87.5,27.5 C 88.8333,27.5 90.1667,27.5 91.5,27.5C 91.5,36.8333 91.5,46.1667 91.5,55.5C 90.1667,55.5 88.8333,55.5 87.5,55.5C 87.5,56.8333 87.5,58.1667 87.5,59.5C 84.8333,59.5 82.1667,59.5 79.5,59.5C 76.8333,59.5 74.1667,59.5 71.5,59.5C 71.5,58.1667 71.5,56.8333 71.5,55.5C 71.5,52.8333 71.5,50.1667 71.5,47.5C 70.1667,47.5 68.8333,47.5 67.5,47.5C 67.5,43.5 67.5,39.5 67.5,35.5C 68.8333,35.5 70.1667,35.5 71.5,35.5C 71.5,36.8333 71.5,38.1667 71.5,39.5C 71.5,40.8333 71.5,42.1667 71.5,43.5C 74.1667,43.5 76.8333,43.5 79.5,43.5C 79.5,44.8333 79.5,46.1667 79.5,47.5C 78.1667,47.5 76.8333,47.5 75.5,47.5C 75.5,50.1667 75.5,52.8333 75.5,55.5C 76.8333,55.5 78.1667,55.5 79.5,55.5C 79.5,54.1667 79.5,52.8333 79.5,51.5C 80.8333,51.5 82.1667,51.5 83.5,51.5C 83.5,50.1667 83.5,48.8333 83.5,47.5C 84.8333,47.5 86.1667,47.5 87.5,47.5C 87.5,40.8333 87.5,34.1667 87.5,27.5 Z"/></g><g><path style="opacity:1" fill="#2a7089" d="M 71.5,39.5 C 72.8333,39.5 74.1667,39.5 75.5,39.5C 76.8333,39.5 78.1667,39.5 79.5,39.5C 79.5,40.8333 79.5,42.1667 79.5,43.5C 76.8333,43.5 74.1667,43.5 71.5,43.5C 71.5,42.1667 71.5,40.8333 71.5,39.5 Z"/></g><g><path style="opacity:1" fill="#fefffe" d="M 75.5,35.5 C 76.8333,35.5 78.1667,35.5 79.5,35.5C 79.5,36.8333 79.5,38.1667 79.5,39.5C 78.1667,39.5 76.8333,39.5 75.5,39.5C 75.5,38.1667 75.5,36.8333 75.5,35.5 Z"/></g><g><path style="opacity:1" fill="#65b1c5" d="M 71.5,35.5 C 72.8333,35.5 74.1667,35.5 75.5,35.5C 75.5,36.8333 75.5,38.1667 75.5,39.5C 74.1667,39.5 72.8333,39.5 71.5,39.5C 71.5,38.1667 71.5,36.8333 71.5,35.5 Z"/></g><g><path style="opacity:1" fill="#252e36" d="M 39.5,19.5 C 39.5,24.8333 39.5,30.1667 39.5,35.5C 39.5,39.5 39.5,43.5 39.5,47.5C 40.8333,47.5 42.1667,47.5 43.5,47.5C 43.5,48.8333 43.5,50.1667 43.5,51.5C 44.8333,51.5 46.1667,51.5 47.5,51.5C 47.5,52.8333 47.5,54.1667 47.5,55.5C 48.8333,55.5 50.1667,55.5 51.5,55.5C 52.8333,55.5 54.1667,55.5 55.5,55.5C 55.5,56.8333 55.5,58.1667 55.5,59.5C 60.8333,59.5 66.1667,59.5 71.5,59.5C 74.1667,59.5 76.8333,59.5 79.5,59.5C 79.5,60.8333 79.5,62.1667 79.5,63.5C 79.5,64.8333 79.5,66.1667 79.5,67.5C 78.1667,67.5 76.8333,67.5 75.5,67.5C 75.5,66.1667 75.5,64.8333 75.5,63.5C 67.5,63.5 59.5,63.5 51.5,63.5C 51.5,64.8333 51.5,66.1667 51.5,67.5C 50.1667,67.5 48.8333,67.5 47.5,67.5C 47.5,66.1667 47.5,64.8333 47.5,63.5C 47.5,62.1667 47.5,60.8333 47.5,59.5C 44.8333,59.5 42.1667,59.5 39.5,59.5C 39.5,58.1667 39.5,56.8333 39.5,55.5C 38.1667,55.5 36.8333,55.5 35.5,55.5C 35.5,43.5 35.5,31.5 35.5,19.5C 36.8333,19.5 38.1667,19.5 39.5,19.5 Z"/></g><g><path style="opacity:1" fill="#3e4a55" d="M 75.5,67.5 C 67.5,67.5 59.5,67.5 51.5,67.5C 51.5,66.1667 51.5,64.8333 51.5,63.5C 59.5,63.5 67.5,63.5 75.5,63.5C 75.5,64.8333 75.5,66.1667 75.5,67.5 Z"/></g><g><path style="opacity:1" fill="#39434b" d="M 79.5,63.5 C 91.5,63.5 103.5,63.5 115.5,63.5C 115.5,64.8333 115.5,66.1667 115.5,67.5C 115.5,71.5 115.5,75.5 115.5,79.5C 115.5,80.8333 115.5,82.1667 115.5,83.5C 111.5,83.5 107.5,83.5 103.5,83.5C 103.5,82.1667 103.5,80.8333 103.5,79.5C 95.5,79.5 87.5,79.5 79.5,79.5C 79.5,83.5 79.5,87.5 79.5,91.5C 80.8333,91.5 82.1667,91.5 83.5,91.5C 83.5,94.1667 83.5,96.8333 83.5,99.5C 84.8333,99.5 86.1667,99.5 87.5,99.5C 87.5,100.833 87.5,102.167 87.5,103.5C 88.8333,103.5 90.1667,103.5 91.5,103.5C 91.5,104.833 91.5,106.167 91.5,107.5C 90.1667,107.5 88.8333,107.5 87.5,107.5C 87.5,110.167 87.5,112.833 87.5,115.5C 87.5,116.833 87.5,118.167 87.5,119.5C 86.1667,119.5 84.8333,119.5 83.5,119.5C 83.5,118.167 83.5,116.833 83.5,115.5C 80.8333,115.5 78.1667,115.5 75.5,115.5C 75.5,114.167 75.5,112.833 75.5,111.5C 75.5,100.833 75.5,90.1667 75.5,79.5C 74.1667,79.5 72.8333,79.5 71.5,79.5C 71.5,90.1667 71.5,100.833 71.5,111.5C 71.5,112.833 71.5,114.167 71.5,115.5C 70.1667,115.5 68.8333,115.5 67.5,115.5C 67.5,116.833 67.5,118.167 67.5,119.5C 64.8333,119.5 62.1667,119.5 59.5,119.5C 59.5,118.167 59.5,116.833 59.5,115.5C 58.1667,115.5 56.8333,115.5 55.5,115.5C 55.5,114.167 55.5,112.833 55.5,111.5C 55.5,100.833 55.5,90.1667 55.5,79.5C 55.5,78.1667 55.5,76.8333 55.5,75.5C 54.1667,75.5 52.8333,75.5 51.5,75.5C 51.5,74.1667 51.5,72.8333 51.5,71.5C 59.5,71.5 67.5,71.5 75.5,71.5C 75.5,70.1667 75.5,68.8333 75.5,67.5C 76.8333,67.5 78.1667,67.5 79.5,67.5C 79.5,66.1667 79.5,64.8333 79.5,63.5 Z"/></g><g><path style="opacity:1" fill="#000" d="M 11.5,67.5 C 11.5,71.5 11.5,75.5 11.5,79.5C 10.1667,79.5 8.83333,79.5 7.5,79.5C 7.5,78.1667 7.5,76.8333 7.5,75.5C 6.16667,75.5 4.83333,75.5 3.5,75.5C 3.5,74.1667 3.5,72.8333 3.5,71.5C 4.83333,71.5 6.16667,71.5 7.5,71.5C 7.5,70.1667 7.5,68.8333 7.5,67.5C 8.83333,67.5 10.1667,67.5 11.5,67.5 Z"/></g><g><path style="opacity:1" fill="#222e36" d="M 51.5,67.5 C 59.5,67.5 67.5,67.5 75.5,67.5C 75.5,68.8333 75.5,70.1667 75.5,71.5C 67.5,71.5 59.5,71.5 51.5,71.5C 51.5,70.1667 51.5,68.8333 51.5,67.5 Z"/></g><g><path style="opacity:1" fill="#000" d="M 115.5,67.5 C 116.833,67.5 118.167,67.5 119.5,67.5C 119.5,68.8333 119.5,70.1667 119.5,71.5C 120.833,71.5 122.167,71.5 123.5,71.5C 123.5,72.8333 123.5,74.1667 123.5,75.5C 122.167,75.5 120.833,75.5 119.5,75.5C 119.5,76.8333 119.5,78.1667 119.5,79.5C 118.167,79.5 116.833,79.5 115.5,79.5C 115.5,75.5 115.5,71.5 115.5,67.5 Z"/></g><g><path style="opacity:1" fill="#556169" d="M 55.5,79.5 C 55.5,90.1667 55.5,100.833 55.5,111.5C 54.1667,111.5 52.8333,111.5 51.5,111.5C 51.5,100.833 51.5,90.1667 51.5,79.5C 52.8333,79.5 54.1667,79.5 55.5,79.5 Z"/></g><g><path style="opacity:1" fill="#556169" d="M 75.5,111.5 C 74.1667,111.5 72.8333,111.5 71.5,111.5C 71.5,100.833 71.5,90.1667 71.5,79.5C 72.8333,79.5 74.1667,79.5 75.5,79.5C 75.5,90.1667 75.5,100.833 75.5,111.5 Z"/></g><g><path style="opacity:1" fill="#37424a" d="M 47.5,63.5 C 47.5,64.8333 47.5,66.1667 47.5,67.5C 48.8333,67.5 50.1667,67.5 51.5,67.5C 51.5,68.8333 51.5,70.1667 51.5,71.5C 51.5,72.8333 51.5,74.1667 51.5,75.5C 52.8333,75.5 54.1667,75.5 55.5,75.5C 55.5,76.8333 55.5,78.1667 55.5,79.5C 54.1667,79.5 52.8333,79.5 51.5,79.5C 51.5,90.1667 51.5,100.833 51.5,111.5C 51.5,112.833 51.5,114.167 51.5,115.5C 48.8333,115.5 46.1667,115.5 43.5,115.5C 43.5,116.833 43.5,118.167 43.5,119.5C 42.1667,119.5 40.8333,119.5 39.5,119.5C 39.5,118.167 39.5,116.833 39.5,115.5C 39.5,112.833 39.5,110.167 39.5,107.5C 38.1667,107.5 36.8333,107.5 35.5,107.5C 35.5,106.167 35.5,104.833 35.5,103.5C 36.8333,103.5 38.1667,103.5 39.5,103.5C 39.5,102.167 39.5,100.833 39.5,99.5C 40.8333,99.5 42.1667,99.5 43.5,99.5C 43.5,96.8333 43.5,94.1667 43.5,91.5C 44.8333,91.5 46.1667,91.5 47.5,91.5C 47.5,87.5 47.5,83.5 47.5,79.5C 39.5,79.5 31.5,79.5 23.5,79.5C 23.5,80.8333 23.5,82.1667 23.5,83.5C 19.5,83.5 15.5,83.5 11.5,83.5C 11.5,82.1667 11.5,80.8333 11.5,79.5C 11.5,75.5 11.5,71.5 11.5,67.5C 11.5,66.1667 11.5,64.8333 11.5,63.5C 23.5,63.5 35.5,63.5 47.5,63.5 Z"/></g><g><path style="opacity:1" fill="#000" d="M 35.5,107.5 C 36.8333,107.5 38.1667,107.5 39.5,107.5C 39.5,110.167 39.5,112.833 39.5,115.5C 35.5,115.5 31.5,115.5 27.5,115.5C 27.5,114.167 27.5,112.833 27.5,111.5C 26.1667,111.5 24.8333,111.5 23.5,111.5C 23.5,110.167 23.5,108.833 23.5,107.5C 27.5,107.5 31.5,107.5 35.5,107.5 Z"/></g><g><path style="opacity:1" fill="#000" d="M 91.5,107.5 C 95.5,107.5 99.5,107.5 103.5,107.5C 103.5,108.833 103.5,110.167 103.5,111.5C 102.167,111.5 100.833,111.5 99.5,111.5C 99.5,112.833 99.5,114.167 99.5,115.5C 95.5,115.5 91.5,115.5 87.5,115.5C 87.5,112.833 87.5,110.167 87.5,107.5C 88.8333,107.5 90.1667,107.5 91.5,107.5 Z"/></g></svg>